<svg id="Solid" enable-background="new 0 0 512 512" viewBox="0 0 512 512" xmlns="http://www.w3.org/2000/svg"><path d="m96 120v104h-32v-104zm-32 168v104h32v-104zm168-168v104h32v-104zm0 168v104h32v-104zm184-168v104h32v-104zm0 168v104h32v-104zm-256-168v104h16v-104zm0 168v104h16v-104zm32-168v104h16v-104zm0 168v104h16v-104zm144-168v104h16v-104zm0 168v104h16v-104zm32-168v104h16v-104zm0 168v104h16v-104zm-248-168v104h24v-104zm0 168v104h24v-104zm168-168v104h24v-104zm0 168v104h24v-104zm200-48h-464v32h464zm-456-152h72v-16h-88v88h16zm464-16h-88v16h72v72h16zm-392 352h-72v-72h-16v88h88zm392-72h-16v72h-72v16h88z"/></svg>