<svg height="27" viewBox="0 -31 447.94281 447" width="27" xmlns="http://www.w3.org/2000/svg"><path d="m170.636719 128.472656c-17.664063.019532-31.980469 14.332032-32 32 0 5.890625 4.777343 10.664063 10.667969 10.664063 5.890624 0 10.667968-4.773438 10.667968-10.664063s4.773438-10.667968 10.664063-10.667968 10.667969 4.777343 10.667969 10.667968 4.777343 10.664063 10.667968 10.664063 10.664063-4.773438 10.664063-10.664063c-.019531-17.667968-14.332031-31.980468-32-32zm0 0"/><path d="m277.304688 128.472656c-17.664063.019532-31.980469 14.332032-32 32 0 5.890625 4.777343 10.664063 10.667968 10.664063s10.664063-4.773438 10.664063-10.664063 4.777343-10.667968 10.667969-10.667968c5.890624 0 10.667968 4.777343 10.667968 10.667968s4.773438 10.664063 10.664063 10.664063 10.667969-4.773438 10.667969-10.664063c-.019532-17.667968-14.335938-31.980468-32-32zm0 0"/><path d="m416.753906 86.199219c-25.636718-55.136719-92.078125-56.019531-111.566406-55.078125-19.253906-18.757813-45.144531-30.648438-81.214844-30.648438-36.070312 0-61.964844 11.890625-81.21875 30.648438-19.484375-.941406-85.917968-.027344-111.5625 55.078125-32.511718 69.875-39.648437 118.273437-21.21875 143.855469 8.246094 11.28125 21.554688 17.730468 35.519532 17.207031 2.273437 0 4.542968-.128907 6.800781-.394531 7.308593-.886719 14.429687-2.9375 21.09375-6.066407-8.367188 43.773438-3.355469 76.777344 15.636719 100.441407 23.332031 29.082031 67.480468 43.230468 134.949218 43.230468 67.464844 0 111.613282-14.148437 134.945313-43.230468 18.992187-23.664063 24.003906-56.667969 15.636719-100.441407 6.664062 3.128907 13.785156 5.179688 21.097656 6.066407 2.257812.265624 4.527344.394531 6.800781.394531 13.960937.519531 27.273437-5.929688 35.519531-17.207031 18.425782-25.582032 11.289063-73.980469-21.21875-143.855469zm-366.867187 139.480469c-8.453125 1.691406-17.152344-1.425782-22.601563-8.105469-6.15625-8.542969-16.210937-37.5625 23.238282-122.375 15.207031-32.695313 51.386718-40.753907 74.542968-42.449219-24.59375 37.917969-33.871094 90.414062-41.972656 136.761719-1.160156 6.640625-2.304688 13.121093-3.472656 19.503906-3.222656 6.722656-15.882813 15.074219-29.734375 16.664063zm174.085937 73.457031c-11.777344-.011719-21.324218-9.554688-21.335937-21.332031h42.667969c-.011719 11.777343-9.554688 21.320312-21.332032 21.332031zm118.3125 28.75c-17.863281 22.273437-53.304687 33.652343-107.648437 34.984375v-43.914063c18.789062-4.835937 31.941406-21.75 32-41.152343-.011719-11.777344-9.554688-21.320313-21.332031-21.332032h-42.667969c-11.777344.011719-21.320313 9.554688-21.332031 21.332032.058593 19.402343 13.210937 36.316406 32 41.152343v43.914063c-54.34375-1.332032-89.785157-12.710938-107.644532-34.984375-15.824218-19.726563-19.085937-49.3125-9.9375-90.4375 3.039063-13.726563 5.664063-28.726563 8.382813-44.269531 14.042969-80.335938 29.960937-171.375 119.867187-171.375s105.820313 91.039062 119.863282 171.375c2.71875 15.542968 5.34375 30.542968 8.386718 44.269531 9.144532 41.125 5.882813 70.710937-9.9375 90.4375zm78.375-110.3125c-5.476562 6.648437-14.152344 9.761719-22.605468 8.109375-13.847657-1.589844-26.511719-9.945313-29.734376-16.664063-1.167968-6.382812-2.3125-12.863281-3.472656-19.503906-8.101562-46.351563-17.378906-98.851563-41.976562-136.769531 23.15625 1.695312 59.34375 9.765625 74.546875 42.457031 39.449219 84.808594 29.398437 113.832031 23.242187 122.371094zm0 0"/></svg>