<?xml version="1.0" encoding="UTF-8" standalone="no"?>
<!-- Created with Inkscape (http://www.inkscape.org/) -->

<svg
   version="1.1"
   id="svg717"
   xml:space="preserve"
   width="37"
   height="37"
   viewBox="0 0 682.66669 682.66669"
   xmlns="http://www.w3.org/2000/svg"
   xmlns:svg="http://www.w3.org/2000/svg"><defs
     id="defs721"><clipPath
       clipPathUnits="userSpaceOnUse"
       id="clipPath731"><path
         d="M 0,512 H 512 V 0 H 0 Z"
         id="path729" /></clipPath></defs><g
     id="g723"
     transform="matrix(1.3333333,0,0,-1.3333333,0,682.66667)"><g
       id="g725"><g
         id="g727"
         clip-path="url(#clipPath731)"><g
           id="g733"
           transform="translate(256,398.4658)"><path
             d="m 0,0 -16.831,16.831 c -46.478,46.478 -121.833,46.478 -168.311,0 -46.478,-46.477 -46.478,-121.833 0,-168.31 L 0,-336.621 185.142,-151.479 c 46.478,46.477 46.478,121.833 0,168.31 -46.478,46.478 -121.833,46.478 -168.311,0 z"
             style="fill:none;stroke:#FFFFFF;stroke-width:30;stroke-linecap:round;stroke-linejoin:round;stroke-miterlimit:10;stroke-dasharray:none;stroke-opacity:1"
             id="path735" /></g><g
           id="g737"
           transform="translate(355,256)"><path
             d="M 0,0 H 142"
             style="fill:none;stroke:#FFFFFF;stroke-width:30;stroke-linecap:round;stroke-linejoin:round;stroke-miterlimit:10;stroke-dasharray:none;stroke-opacity:1"
             id="path739" /></g><g
           id="g741"
           transform="translate(15,256)"><path
             d="M 0,0 H 121"
             style="fill:none;stroke:#FFFFFF;stroke-width:30;stroke-linecap:round;stroke-linejoin:round;stroke-miterlimit:10;stroke-dasharray:none;stroke-opacity:1"
             id="path743" /></g><g
           id="g745"
           transform="translate(136,256)"><path
             d="M 0,0 42,100"
             style="fill:none;stroke:#FFFFFF;stroke-width:30;stroke-linecap:round;stroke-linejoin:round;stroke-miterlimit:10;stroke-dasharray:none;stroke-opacity:1"
             id="path747" /></g><g
           id="g749"
           transform="translate(254,206)"><path
             d="M 0,0 -76,150"
             style="fill:none;stroke:#FFFFFF;stroke-width:30;stroke-linecap:round;stroke-linejoin:round;stroke-miterlimit:10;stroke-dasharray:none;stroke-opacity:1"
             id="path751" /></g><g
           id="g753"
           transform="translate(254,206)"><path
             d="M 0,0 63,110"
             style="fill:none;stroke:#FFFFFF;stroke-width:30;stroke-linecap:round;stroke-linejoin:round;stroke-miterlimit:10;stroke-dasharray:none;stroke-opacity:1"
             id="path755" /></g><g
           id="g757"
           transform="translate(355,256)"><path
             d="M 0,0 -38,60"
             style="fill:none;stroke:#FFFFFF;stroke-width:30;stroke-linecap:round;stroke-linejoin:round;stroke-miterlimit:10;stroke-dasharray:none;stroke-opacity:1"
             id="path759" /></g></g></g></g></svg>
