<?xml version="1.0" standalone="no"?>
<!DOCTYPE svg PUBLIC "-//W3C//DTD SVG 20010904//EN"
 "http://www.w3.org/TR/2001/REC-SVG-20010904/DTD/svg10.dtd">
<svg version="1.0" xmlns="http://www.w3.org/2000/svg"
 width="77.000000pt" height="43.000000pt" viewBox="0 0 77.000000 43.000000"
 preserveAspectRatio="xMidYMid meet" >

<g transform="translate(0.000000,43.000000) scale(0.100000,-0.100000)"
fill="#DE2E17" stroke="none">
<path d="M378 423 c-10 -2 -18 -11 -18 -19 0 -8 -4 -14 -10 -14 -5 0 -10 -7
-10 -15 0 -8 5 -15 11 -15 8 0 10 -13 6 -36 -4 -20 -2 -45 4 -55 12 -24 64
-26 73 -3 8 22 8 24 -8 24 -8 0 -18 5 -21 11 -11 16 4 59 20 59 8 0 15 7 15
15 0 8 -7 15 -15 15 -8 0 -15 9 -15 20 0 20 -2 21 -32 13z"/>
<path d="M10 328 c0 -35 -3 -80 -6 -100 -6 -36 -5 -38 19 -38 22 0 26 5 29 33
3 30 5 32 36 29 46 -5 72 20 72 68 0 52 -23 70 -93 70 l-57 0 0 -62z m88 23
c21 -13 11 -56 -13 -56 -20 0 -31 25 -21 51 6 16 15 17 34 5z"/>
<path d="M200 370 c-26 -26 -26 -74 1 -101 27 -27 102 -24 107 4 3 16 -1 18
-25 13 -21 -5 -34 -2 -43 9 -11 13 -7 15 34 15 45 0 51 5 46 40 -5 41 -85 55
-120 20z m75 -20 c4 -6 -5 -10 -20 -10 -15 0 -24 4 -20 10 3 6 12 10 20 10 8
0 17 -4 20 -10z"/>
<path d="M472 378 c-19 -19 -14 -35 15 -63 l28 -25 -33 0 c-26 0 -33 -4 -30
-17 2 -12 14 -19 35 -21 67 -7 98 41 48 74 -14 9 -25 21 -25 26 0 6 11 8 25 6
19 -4 25 -1 25 13 0 15 -8 19 -38 19 -21 0 -43 -5 -50 -12z"/>
<path d="M276 199 c-3 -17 -6 -56 -6 -85 0 -51 1 -54 25 -54 22 0 25 4 25 39
0 21 3 59 6 85 6 44 6 46 -18 46 -21 0 -27 -6 -32 -31z"/>
<path d="M106 163 c-3 -21 -6 -66 -6 -100 0 -61 1 -63 25 -63 22 0 25 4 25 34
0 34 1 35 33 30 42 -7 66 12 73 57 9 54 -19 79 -90 79 l-53 0 -7 -37z m104
-23 c0 -40 -44 -56 -55 -20 -9 30 12 52 36 39 10 -5 19 -14 19 -19z"/>
<path d="M367 193 c-18 -17 -5 -29 28 -25 46 5 45 -12 -2 -24 -44 -11 -63 -36
-47 -61 8 -13 27 -19 73 -21 l61 -3 0 64 c0 50 -4 66 -16 71 -21 8 -89 8 -97
-1z m63 -88 c0 -8 -9 -15 -20 -15 -20 0 -26 11 -13 23 12 13 33 7 33 -8z"/>
<path d="M520 180 c-28 -28 -27 -84 2 -104 12 -9 37 -16 55 -16 26 0 33 4 33
19 0 14 -8 21 -27 23 -22 2 -28 8 -28 28 0 21 5 26 33 28 24 2 32 8 32 23 0
27 -72 27 -100 -1z"/>
<path d="M640 173 c-16 -20 -20 -36 -16 -58 9 -41 18 -47 75 -53 47 -4 51 -3
51 17 0 17 -4 20 -22 16 -13 -3 -32 1 -43 9 -19 14 -17 15 33 16 48 0 52 2 52
23 0 59 -91 79 -130 30z m80 -13 c0 -5 -9 -10 -20 -10 -11 0 -20 5 -20 10 0 6
9 10 20 10 11 0 20 -4 20 -10z"/>
</g>
</svg>
